<svg width="74" height="59" viewBox="0 0 74 59" fill="none" xmlns="http://www.w3.org/2000/svg">
<path d="M8.54227 16.1374C8.54227 16.1374 4.33889 15.9195 3.33007 22.1597C2.32126 28.4 2 37.2173 2 37.2173" stroke="white" stroke-width="3" stroke-miterlimit="10" stroke-linecap="round"/>
<path d="M52.8932 12.7233C52.8932 12.7233 51.8724 5.42107 53.7128 2C57.7991 2 58.8169 11.184 58.8169 11.184" stroke="white" stroke-width="3" stroke-miterlimit="10" stroke-linecap="round"/>
<path d="M12.5269 38.0404C12.5269 38.0404 19.2733 42.0426 22.4348 42.5165C24.2843 42.7898 32.547 42.5822 39.1013 42.3643C43.773 42.2087 47.5771 42.0426 47.5771 42.0426L46.7604 48.992L48.3937 56.9999H52.5971L51.5523 45.8131C57.5031 36.7467 56.9566 34.7439 58.8091 29.3269C60.6616 23.9099 62.7933 26.2656 67.4951 26.6772C72.1969 27.0889 71.9988 19.1986 71.9988 19.1986L68.0266 14.9785L71.2992 8.49955C71.2992 8.49955 68.2427 6.42408 65.9489 9.61684C65.8928 9.69617 65.8155 9.75188 65.729 9.77527C65.6425 9.79867 65.5518 9.78844 65.4709 9.74619C65.39 9.70393 65.3235 9.63202 65.2818 9.54167C65.2401 9.45132 65.2255 9.34761 65.2403 9.24672C65.8018 5.63885 66.102 4.25521 66.102 4.25521C66.102 4.25521 63.3998 3.21747 61.3612 8.16401C61.2724 8.38933 61.14 8.58821 60.9741 8.74536C60.8082 8.90251 60.6132 9.01376 60.4042 9.07054C60.1951 9.12733 59.9776 9.12815 59.7682 9.07294C59.5588 9.01773 59.3632 8.90796 59.1964 8.75206C58.8962 8.48571 58.5599 8.17785 58.1636 7.82848" stroke="white" stroke-width="3" stroke-miterlimit="10" stroke-linecap="round"/>
<path d="M45.6395 42.8695L43.3907 46.1661L44.5166 57H40.1211L38.791 48.757L39.1063 42.3645" stroke="white" stroke-width="3" stroke-miterlimit="10"/>
<path d="M22.9526 43.4575L19.9862 46.0484L21.4694 57H17.6383L15.4915 48.6393L16.092 40.9013C16.0969 40.8448 16.0858 40.788 16.0604 40.7395C16.035 40.6909 15.9967 40.653 15.9511 40.6316C15.9055 40.6102 15.8551 40.6064 15.8074 40.6207C15.7598 40.635 15.7174 40.6667 15.6867 40.711L12.5131 45.2079L13.2307 56.9689H8.94926L7.72127 47.0758L6.44824 28.9154" stroke="white" stroke-width="3" stroke-miterlimit="10" stroke-linecap="round"/>
<path d="M10.2765 37.2174C10.2765 37.2174 5.06429 35.3322 6.8027 22.1425C8.5411 8.95291 18.5572 10.8278 18.5572 10.8278C18.5572 10.8278 32.4584 13.5362 38.7935 12.713C45.1286 11.8897 52.6046 9.29883 52.6046 9.29883" stroke="white" stroke-width="3" stroke-miterlimit="10" stroke-linecap="round"/>
<path d="M61.6885 20.5132C61.6885 20.5132 64.6519 20.7484 65.4685 21.1012" stroke="white" stroke-width="2" stroke-miterlimit="10" stroke-linecap="round"/>
<path d="M49.1226 11.4503C49.2022 12.0197 49.3105 12.5834 49.4468 13.1384" stroke="white" stroke-width="3" stroke-miterlimit="10" stroke-linecap="round"/>
<path d="M50.437 16.5076C51.818 20.3556 53.7012 23.9379 56.0215 27.1305" stroke="white" stroke-width="2" stroke-miterlimit="10" stroke-linecap="round" stroke-dasharray="10.3 10.3"/>
<path d="M38.791 13.6642C38.791 13.6642 38.827 14.3214 38.8841 15.3937" stroke="white" stroke-width="3" stroke-miterlimit="10" stroke-linecap="round"/>
<path d="M39.0783 19.0984C39.2764 23.1836 39.5076 28.521 39.5136 31.2053C39.4643 33.9801 38.9377 36.716 37.9644 39.2547" stroke="white" stroke-width="2" stroke-miterlimit="10" stroke-linecap="round" stroke-dasharray="10.73 10.73"/>
<path d="M37.2816 40.9427C36.8582 41.894 36.543 42.4475 36.543 42.4475" stroke="white" stroke-width="3" stroke-miterlimit="10" stroke-linecap="round"/>
<path d="M18.7119 41.2679C18.7119 41.2679 26.5813 26.7396 35.1922 25.8057C43.8031 24.8717 52.6062 21.0944 52.6062 21.0944" stroke="white" stroke-width="2" stroke-miterlimit="10" stroke-linecap="round" stroke-dasharray="10 10"/>
<path d="M39.5151 32.8588L56.3527 37.2173" stroke="white" stroke-width="2" stroke-miterlimit="10" stroke-linecap="round" stroke-dasharray="10 10"/>
<path d="M22.9536 11.599C22.9536 11.599 25.1003 29.0087 26.5295 31.1707" stroke="white" stroke-width="2" stroke-miterlimit="10" stroke-linecap="round" stroke-dasharray="10 10"/>
<path d="M6.80713 25.439C6.80713 25.439 22.2396 24.6157 24.6415 23.2805" stroke="white" stroke-width="2" stroke-miterlimit="10" stroke-linecap="round" stroke-dasharray="10 10"/>
</svg>
