<svg width="25" height="31" viewBox="0 0 25 31" fill="none" xmlns="http://www.w3.org/2000/svg">
<path d="M8.62251 19.6176C8.41171 19.6176 8.22725 19.7415 8.1482 19.9151C8.06915 20.0887 8.1482 20.3119 8.3063 20.4358C8.67521 20.7086 9.04412 20.907 9.36033 21.0805C9.72923 21.2541 10.0718 21.4029 10.388 21.5021C10.5198 21.6508 10.6252 21.7996 10.7569 21.9484C11.7319 22.9898 12.9704 23.5601 14.2352 23.5601C15.6845 23.5601 17.0283 22.841 18.056 21.5516C18.4249 21.4525 18.8202 21.2789 19.2418 21.0805C19.5843 20.9318 19.9269 20.7086 20.2958 20.4358C20.4539 20.3119 20.533 20.1135 20.4539 19.9151C20.3749 19.7415 20.1904 19.6176 19.9796 19.6176C19.6634 19.6176 19.3735 19.6176 19.0837 19.5928C19.4262 18.6753 19.6107 17.6339 19.6107 16.5677C19.6107 16.3197 19.3999 16.1213 19.1364 16.1213C18.8729 16.1213 18.6621 16.3197 18.6621 16.5677C18.6621 17.5843 18.4776 18.5761 18.1351 19.4192C18.0824 19.3944 18.0297 19.3944 17.977 19.3696C17.2128 19.0721 16.8175 18.7001 16.5277 18.4274C16.3959 18.3034 16.2905 18.2042 16.1588 18.1298C16.1061 18.105 16.0534 18.0802 15.9743 18.0306C15.4737 17.8075 14.8939 17.8323 14.446 18.0802C14.3669 18.1298 14.2879 18.1794 14.2088 18.229C14.1298 18.1794 14.0507 18.105 13.9717 18.0802C13.5237 17.8323 12.944 17.8075 12.4433 18.0306C12.3906 18.0554 12.3379 18.0802 12.2852 18.105C12.1535 18.1794 12.0481 18.2786 11.9163 18.4026C11.6265 18.6753 11.2576 19.0473 10.4671 19.3448C10.388 19.3696 10.3089 19.3944 10.2299 19.4192C10.0454 18.9481 9.88734 18.4274 9.80829 17.8819C9.75558 17.6339 9.51843 17.4603 9.25492 17.5099C8.99142 17.5595 8.80696 17.7827 8.85966 18.0306C8.93872 18.5761 9.09682 19.0969 9.28127 19.5928C9.14952 19.6176 8.91237 19.6176 8.62251 19.6176ZM14.2879 22.6427C13.471 22.6427 12.6541 22.3203 11.9954 21.75C12.1535 21.75 12.3116 21.75 12.4697 21.75C13.2075 21.75 13.919 21.4277 14.3669 20.8822C14.8149 21.4277 15.5264 21.75 16.2642 21.75C16.3959 21.75 16.5013 21.75 16.6331 21.75C15.9216 22.3203 15.1311 22.6427 14.2879 22.6427ZM10.9677 20.2127C11.9163 19.8407 12.417 19.3696 12.7068 19.0721C12.7859 18.9977 12.8649 18.9233 12.9177 18.8985C12.9177 18.8985 12.944 18.8737 12.9704 18.8737C13.1812 18.7745 13.4447 18.7993 13.6028 18.8985C13.6555 18.9233 13.6818 18.9481 13.7345 18.9977C13.8926 19.1464 14.1034 19.2456 14.3142 19.2456C14.525 19.2456 14.7358 19.1712 14.8939 18.9977C14.9203 18.9729 14.973 18.9233 15.0257 18.8985C15.2102 18.7993 15.4473 18.7993 15.6581 18.8737C15.6845 18.8737 15.7108 18.8985 15.7108 18.8985C15.7372 18.9233 15.8426 19.0225 15.9216 19.0721C16.2115 19.3448 16.7385 19.8407 17.6608 20.2127C17.8979 20.3119 18.1614 20.3614 18.4513 20.4358C17.6608 20.7582 17.0547 20.8822 16.1851 20.8822C15.7108 20.8822 15.2365 20.659 14.973 20.2623C14.8149 20.0391 14.5514 19.9151 14.2879 19.9151C14.0244 19.9151 13.7609 20.0391 13.6028 20.2623C13.3393 20.6342 12.8649 20.8822 12.3906 20.8822C11.5211 20.8822 10.915 20.7582 10.1245 20.4358C10.467 20.3614 10.7306 20.3119 10.9677 20.2127Z" fill="black"/>
<path d="M23.1684 1.51571C22.0353 0.499044 20.507 -0.0464849 18.8469 0.00310863C17.055 0.0527022 15.2895 0.796604 13.9193 2.03644C13.0761 1.39173 11.9957 1.06937 10.8626 1.09417C9.36065 1.14376 7.88502 1.78847 6.80464 2.90433C5.82967 3.8962 5.24995 5.13604 5.1709 6.42547C4.90739 6.45027 4.67024 6.49986 4.40673 6.54946C1.42911 7.24376 -0.494482 9.74824 0.111582 12.1039C0.375088 13.1206 1.0602 13.9885 2.06153 14.5588C2.9311 15.0547 3.95877 15.3027 5.0128 15.3027C5.53981 15.3027 6.06682 15.2531 6.59383 15.1043C7.12085 14.9804 7.64786 14.782 8.12217 14.5588C8.25392 15.2531 8.41203 15.9226 8.62283 16.4682C8.62283 16.493 8.64918 16.5178 8.64918 16.5178C8.64918 16.5426 8.67553 16.5426 8.67553 16.5673C8.67553 16.5673 8.67553 16.5673 8.67553 16.5921C8.67553 16.6169 8.70188 16.6169 8.72823 16.6417C8.75458 16.6665 8.75459 16.6665 8.78094 16.6665C8.80729 16.6665 8.80729 16.6913 8.83364 16.6913C8.85999 16.6913 8.85999 16.7161 8.88634 16.7161C8.91269 16.7161 8.93904 16.7161 8.93904 16.7409C8.93904 16.7409 8.93904 16.7409 8.96539 16.7409C8.99174 16.7409 9.01809 16.7409 9.01809 16.7409C9.04444 16.7409 9.07079 16.7409 9.09714 16.7409C9.09714 16.7409 9.09714 16.7409 9.12349 16.7409C9.14984 16.7409 9.1762 16.7409 9.20255 16.7161H9.2289C9.2289 16.7161 9.2289 16.7161 9.25525 16.7161H9.2816H9.30795C9.30795 16.7161 9.30795 16.7161 9.3343 16.7161C9.3343 16.7161 9.36065 16.7161 9.36065 16.6913C9.36065 16.6913 9.36065 16.6913 9.387 16.6913L9.41335 16.6665C9.88766 16.1954 11.5214 15.5259 13.7876 15.1291C16.0801 14.7324 18.0564 14.782 19.084 15.3027H19.1104H19.1367H19.1631H19.1894H19.2158C19.2158 15.3027 19.2158 15.3027 19.2421 15.3027H19.2685C19.2685 15.3027 19.2685 15.3027 19.2948 15.3027C19.3212 15.3027 19.3475 15.3027 19.3739 15.3027C19.3739 15.3027 19.3739 15.3027 19.4002 15.3027C19.4266 15.3027 19.4529 15.3027 19.4529 15.2779C19.4793 15.2779 19.5056 15.2531 19.5056 15.2531C19.532 15.2531 19.5583 15.2283 19.5583 15.2035C19.5847 15.1787 19.5847 15.1787 19.611 15.1539C19.6374 15.1291 19.6374 15.1291 19.6637 15.1043L19.6901 15.0795V15.0547C19.6901 15.0299 19.7164 15.0052 19.7164 14.9804C19.9009 14.1869 19.9536 13.3934 19.9009 12.6247C21.0076 12.2279 22.0089 11.5832 22.8522 10.7153C25.5926 7.96287 25.7244 3.84661 23.1684 1.51571ZM22.1934 10.1202C21.5083 10.8145 20.6914 11.36 19.7955 11.7072C19.6637 11.1369 19.4793 10.5417 19.2158 9.99621C19.1104 9.77303 18.8205 9.67385 18.5834 9.77303C18.3462 9.87222 18.2408 10.145 18.3462 10.3682C18.6097 10.9385 18.8205 11.5336 18.9259 12.1287C19.0577 12.8478 19.0577 13.5669 18.9523 14.2612C17.1868 13.7157 14.7098 14.0381 13.6295 14.2365C12.2329 14.4844 10.4147 14.9556 9.3343 15.6003C9.14984 14.906 8.99174 14.0877 8.91269 13.3438C8.85999 12.823 8.85999 12.3271 8.88634 11.8064C8.91269 11.5584 8.70188 11.3352 8.43838 11.3352C8.17487 11.3104 7.93772 11.5088 7.93772 11.7568C7.88501 12.3023 7.91137 12.8726 7.96407 13.443C7.96407 13.5421 7.99042 13.6413 7.99042 13.7405C7.91137 13.7405 7.80596 13.7405 7.72691 13.7901C7.3053 14.0133 6.85734 14.1621 6.38303 14.286C5.0128 14.6084 3.61622 14.4348 2.56219 13.8149C1.77167 13.3438 1.24466 12.6991 1.03385 11.9056C0.559542 10.021 2.16693 8.01246 4.64389 7.44214C4.98645 7.36775 5.329 7.31815 5.67156 7.29336C6.48843 7.24376 7.2526 7.39254 7.96407 7.69011C8.01677 7.7149 8.09582 7.7397 8.17487 7.7397C8.35933 7.7397 8.51743 7.64051 8.59648 7.46693C8.70188 7.24376 8.59648 6.971 8.35933 6.87181C7.64786 6.54945 6.91004 6.40067 6.11952 6.37588C6.22493 5.35921 6.69924 4.31774 7.48976 3.52425C8.41203 2.58197 9.65051 2.03644 10.889 1.98685C11.7849 1.96205 12.6018 2.21002 13.2605 2.68116C12.5754 3.47466 12.0484 4.39214 11.7322 5.33441C11.6532 5.58238 11.8113 5.83035 12.0484 5.90474C12.1011 5.92954 12.1538 5.92954 12.1802 5.92954C12.391 5.92954 12.5754 5.80555 12.6281 5.60718C12.918 4.6649 13.4977 3.72262 14.2619 2.95392C15.5003 1.68929 17.1868 0.945385 18.8469 0.895792C20.2435 0.846198 21.5346 1.31734 22.4833 2.16043C24.6967 4.14417 24.565 7.7149 22.1934 10.1202Z" fill="black"/>
<path d="M17.423 9.49989C15.4994 8.90476 11.1253 9.52469 9.75504 10.8389C9.57059 11.0125 9.57059 11.3101 9.75504 11.4837C9.86044 11.5581 9.96584 11.6077 10.0976 11.6077C10.2293 11.6077 10.3347 11.5581 10.4402 11.4837C10.9145 11.0125 12.1266 10.591 13.5495 10.343C14.9724 10.1198 16.3427 10.1198 17.1332 10.3678C17.3703 10.4422 17.6602 10.3182 17.7392 10.0702C17.8183 9.82226 17.6865 9.57428 17.423 9.49989Z" fill="black"/>
<path d="M16.0003 25.6687C16.0003 25.6439 16.0003 25.5943 16.0003 25.5695C16.0003 24.6769 15.2361 23.9578 14.3139 23.9578C13.3916 23.9578 12.6274 24.6769 12.6274 25.5695C12.6274 25.5943 12.6274 25.6439 12.6274 25.6687C11.9686 25.8671 10.7565 26.3134 9.78154 27.2557C8.78022 28.2228 7.27823 30.0825 8.12145 30.876C8.2005 30.9504 8.33225 31 8.46401 31C8.49036 31 8.51671 31 8.54306 31C8.62211 30.9752 10.493 30.6281 11.8896 29.2891C12.7065 28.5204 13.1544 27.5781 13.4179 26.9334C13.6814 27.0821 13.9713 27.1813 14.2875 27.1813C14.6037 27.1813 14.9199 27.1069 15.1571 26.9334C15.4206 27.6029 15.8685 28.5204 16.6854 29.2891C18.082 30.6281 19.9529 31 20.032 31C20.0583 31 20.0847 31 20.111 31C20.2428 31 20.3482 30.9504 20.4536 30.876C21.2968 30.0825 19.7948 28.2228 18.7935 27.2557C17.8975 26.3134 16.6854 25.8423 16.0003 25.6687ZM11.2572 28.6443C10.4667 29.3882 9.49169 29.785 8.91197 29.9586C9.07007 29.537 9.54439 28.7683 10.4667 27.8756C11.1254 27.2309 11.9423 26.859 12.522 26.6358C12.3376 27.2061 11.9423 27.9996 11.2572 28.6443ZM14.3402 26.2391C13.9449 26.2391 13.6287 25.9167 13.6287 25.5447C13.6287 25.148 13.9449 24.8504 14.3402 24.8504C14.7355 24.8504 15.0517 25.1728 15.0517 25.5447C15.0517 25.9415 14.7355 26.2391 14.3402 26.2391ZM17.4232 28.6443C16.7645 27.9996 16.3429 27.2309 16.1321 26.6606C16.7118 26.8838 17.5286 27.2557 18.1874 27.9004C19.136 28.7931 19.584 29.5618 19.7421 29.9834C19.1624 29.785 18.1874 29.3882 17.4232 28.6443Z" fill="black"/>
</svg>
