<svg width="30" height="30" viewBox="0 0 30 30" fill="none" xmlns="http://www.w3.org/2000/svg">
<g clip-path="url(#clip0_524_92)">
<path d="M9.40401 7.5492V3.93245C9.40401 3.04584 10.1252 2.32455 11.0118 2.32455H11.8745C12.2801 2.32455 12.6089 2.65329 12.6089 3.0589C12.6089 3.4645 12.2801 3.79325 11.8745 3.79325H11.0118C10.9364 3.79325 10.8727 3.85697 10.8727 3.93245V6.29583L10.9295 6.26393C11.0392 6.20249 11.1628 6.17018 11.2885 6.17018H14.2102C14.6158 6.17018 14.9445 6.49892 14.9445 6.90453C14.9445 7.31013 14.6158 7.63888 14.2102 7.63888H11.4803L10.4975 8.1898C10.3858 8.2523 10.2621 8.28356 10.1384 8.28356C10.0101 8.28356 9.88175 8.24994 9.76727 8.18287C9.54223 8.05109 9.40401 7.8099 9.40401 7.5492ZM13.4759 3.70651V1.60798C13.4759 0.721295 14.1971 0 15.0836 0H18.9881C19.8746 0 20.5959 0.721295 20.5959 1.60798V6.06573C20.5959 6.36894 20.4096 6.64089 20.1269 6.75048C20.0406 6.78393 19.9508 6.80009 19.8617 6.80009C19.6591 6.80009 19.4609 6.71621 19.319 6.56052L18.1824 5.31425H15.0836C14.1971 5.31433 13.4759 4.59304 13.4759 3.70651ZM14.9446 3.70651C14.9446 3.7806 15.0096 3.84563 15.0837 3.84563H18.5065C18.713 3.84563 18.9099 3.93253 19.0491 4.08519L19.1272 4.17078V1.60798C19.1272 1.53251 19.0635 1.4687 18.9881 1.4687H15.0836C15.0096 1.4687 14.9445 1.53373 14.9445 1.60798V3.70651H14.9446ZM22.4606 9.64406C22.4606 7.95563 23.8342 6.5819 25.5228 6.5819C27.2112 6.5819 28.5848 7.95554 28.5848 9.64406C28.5848 11.3326 27.2112 12.7062 25.5228 12.7062C23.8343 12.7062 22.4606 11.3326 22.4606 9.64406ZM23.9293 9.64406C23.9293 10.5227 24.6441 11.2375 25.5228 11.2375C26.4014 11.2375 27.1161 10.5227 27.1161 9.64406C27.1161 8.76545 26.4014 8.0506 25.5228 8.0506C24.6441 8.05068 23.9293 8.76545 23.9293 9.64406ZM10.7853 28.5311H9.53562V21.7521C9.53562 21.3476 9.20843 21.0192 8.80389 21.0178L4.57827 21.0025V15.6325L9.75789 17.3617C10.1428 17.49 10.5586 17.2823 10.687 16.8976C10.8154 16.5129 10.6077 16.097 10.223 15.9685L4.09931 13.9243C4.03616 13.9008 3.96884 13.8858 3.89892 13.8806C3.84816 13.8768 3.7979 13.8783 3.74854 13.8847C3.63504 13.8994 3.52962 13.94 3.43856 14.0004C3.30621 14.0878 3.20112 14.2184 3.14702 14.3805C3.1183 14.4665 3.10639 14.5539 3.10957 14.6394V21.7342C3.10957 21.7546 3.11039 21.775 3.11202 21.795C3.1121 21.7958 3.1121 21.7965 3.11218 21.7972C3.11218 21.7972 3.11218 21.7973 3.11218 21.7973C3.11226 21.7981 3.11226 21.7987 3.11234 21.7994C3.11234 21.7994 3.11234 21.7995 3.11234 21.7996C3.11243 21.8003 3.11243 21.8008 3.11251 21.8015C3.11251 21.8016 3.11251 21.8018 3.11251 21.802C3.11251 21.8025 3.11259 21.8031 3.11267 21.8037C3.11267 21.8038 3.11267 21.8041 3.11267 21.8043C3.11267 21.8047 3.11275 21.8053 3.11283 21.8059C3.11283 21.8061 3.11283 21.8064 3.11292 21.8066C3.11292 21.8071 3.113 21.8077 3.11308 21.8082C3.11308 21.8084 3.11308 21.8087 3.11316 21.8089C3.11316 21.8094 3.11324 21.8099 3.11324 21.8104C3.11324 21.8107 3.11332 21.8109 3.11332 21.8113C3.11332 21.8118 3.11341 21.8122 3.11341 21.8127C3.11341 21.813 3.11349 21.8133 3.11349 21.8136C3.11349 21.814 3.11357 21.8145 3.11357 21.8149C3.11357 21.8153 3.11365 21.8156 3.11365 21.8159C3.11365 21.8163 3.11373 21.8168 3.11381 21.8173C3.11381 21.8176 3.11389 21.8179 3.11389 21.8183C3.11389 21.8187 3.11398 21.8191 3.11398 21.8196C3.11398 21.8199 3.11406 21.8203 3.11406 21.8207C3.11414 21.8211 3.11414 21.8214 3.11422 21.8218C3.11422 21.8221 3.1143 21.8225 3.1143 21.8229C3.1143 21.8233 3.11438 21.8237 3.11447 21.824C3.11447 21.8244 3.11455 21.8248 3.11455 21.8252C3.11455 21.8256 3.11463 21.826 3.11471 21.8264C3.11471 21.8268 3.11479 21.8271 3.11479 21.8275C3.11487 21.8279 3.11487 21.8283 3.11496 21.8287C3.11504 21.8291 3.11504 21.8295 3.11512 21.8298C3.11512 21.8302 3.1152 21.8305 3.11528 21.8309C3.11528 21.8313 3.11536 21.8317 3.11545 21.8321C3.11545 21.8324 3.11553 21.8328 3.11553 21.8331C3.11561 21.8335 3.11561 21.834 3.11569 21.8344C3.11577 21.8347 3.11577 21.8351 3.11585 21.8355C3.11585 21.8359 3.11593 21.8363 3.11602 21.8366C3.1161 21.837 3.1161 21.8374 3.11618 21.8378C3.11626 21.8382 3.11626 21.8386 3.11634 21.839C3.11642 21.8393 3.11642 21.8397 3.11651 21.8401C3.11659 21.8405 3.11659 21.8409 3.11667 21.8413C3.11667 21.8416 3.11675 21.842 3.11683 21.8424C3.11683 21.8428 3.11691 21.8433 3.117 21.8437C3.11708 21.8441 3.11708 21.8445 3.11716 21.8449C3.11716 21.8452 3.11724 21.8456 3.11732 21.8459C3.11732 21.8464 3.1174 21.8468 3.11749 21.8473C3.11749 21.8477 3.11757 21.848 3.11757 21.8482C3.11765 21.8487 3.11773 21.8491 3.11781 21.8496C3.11781 21.8499 3.11789 21.8502 3.11789 21.8505C3.11797 21.8509 3.11806 21.8514 3.11814 21.8519C3.11814 21.8521 3.11822 21.8526 3.1183 21.8529C3.1183 21.8533 3.11838 21.8539 3.11846 21.8543C3.11855 21.8546 3.11855 21.8548 3.11863 21.8551C3.11871 21.8556 3.11879 21.8561 3.11887 21.8566C3.11887 21.8569 3.11895 21.8571 3.11895 21.8574C3.11904 21.8579 3.11912 21.8584 3.1192 21.8589C3.1192 21.8591 3.11928 21.8594 3.11928 21.8596C3.11936 21.8601 3.11944 21.8606 3.11952 21.8611C3.11952 21.8614 3.11961 21.8616 3.11961 21.8619C3.11969 21.8624 3.11977 21.8631 3.11993 21.8636C3.11993 21.8637 3.11993 21.8639 3.12001 21.8641C3.1201 21.8646 3.12018 21.8653 3.12034 21.8659C3.12034 21.866 3.12034 21.8662 3.12042 21.8663C3.1205 21.8669 3.12059 21.8676 3.12075 21.8681C3.12075 21.8683 3.12075 21.8684 3.12083 21.8685C3.12091 21.8692 3.12108 21.8698 3.12116 21.8704C3.12116 21.8706 3.12116 21.8707 3.12124 21.8708C3.12132 21.8714 3.12148 21.8721 3.12156 21.8728V21.873C3.12173 21.8736 3.12181 21.8744 3.12197 21.8751C3.12197 21.8751 3.12197 21.8752 3.12197 21.8752C3.12214 21.876 3.12222 21.8767 3.12238 21.8774C3.12254 21.8782 3.12263 21.8789 3.12279 21.8796C3.19027 22.2153 3.48654 22.4683 3.84204 22.4686L8.0657 22.4839V29.252C8.06562 29.2565 8.06562 29.261 8.06562 29.2656C8.06562 29.4319 8.12094 29.5854 8.2142 29.7086C8.34826 29.8857 8.56081 30.0001 8.80005 30.0001C8.80511 30.0001 8.81025 30.0001 8.81523 29.9999H10.7841C11.1897 29.9999 11.5185 29.6712 11.5185 29.2656C11.5185 28.86 11.1909 28.5311 10.7853 28.5311ZM1.4151 9.64406C1.4151 7.95563 2.78874 6.5819 4.47726 6.5819C6.16561 6.5819 7.53917 7.95554 7.53917 9.64406C7.53917 11.3326 6.16561 12.7062 4.47726 12.7062C2.78882 12.7062 1.4151 11.3326 1.4151 9.64406ZM2.8838 9.64406C2.8838 10.5227 3.59865 11.2375 4.47726 11.2375C5.35578 11.2375 6.07047 10.5227 6.07047 9.64406C6.07047 8.76545 5.35587 8.05068 4.47734 8.05068C3.59865 8.05068 2.8838 8.76545 2.8838 9.64406ZM29.6609 24.355V16.9252C29.6609 16.5196 29.3322 16.1909 28.9265 16.1909C28.5209 16.1909 28.1922 16.5196 28.1922 16.9252V23.6409H24.0752C23.6696 23.6409 23.3408 23.9697 23.3408 24.3753V29.2655C23.3408 29.6711 23.6696 29.9998 24.0752 29.9998C24.4808 29.9998 24.8095 29.6711 24.8095 29.2655V25.1096H28.1924V29.2655C28.1924 29.6711 28.5212 29.9998 28.9268 29.9998C29.3324 29.9998 29.6611 29.6711 29.6611 29.2655V24.3753C29.6611 24.3685 29.6611 24.3618 29.6609 24.355ZM21.9331 22.4839L26.1569 22.4686C26.2748 22.4685 26.3863 22.4406 26.485 22.3911L26.4851 22.391C26.4857 22.3907 26.4863 22.3903 26.487 22.3901C26.487 22.3901 26.487 22.3901 26.487 22.39C26.4877 22.3897 26.4883 22.3894 26.4889 22.3891C26.489 22.3891 26.4891 22.389 26.4892 22.389C26.4897 22.3887 26.4903 22.3884 26.4909 22.3881C26.491 22.3881 26.491 22.388 26.4912 22.3879C26.4917 22.3877 26.4923 22.3873 26.4928 22.3871C26.493 22.387 26.4932 22.3869 26.4934 22.3868C26.4939 22.3865 26.4943 22.3863 26.4948 22.386C26.495 22.3859 26.4952 22.3859 26.4954 22.3858C26.4959 22.3855 26.4963 22.3853 26.4967 22.385C26.497 22.385 26.4972 22.3849 26.4974 22.3847C26.4978 22.3845 26.4983 22.3842 26.4987 22.384C26.4989 22.3839 26.4991 22.3837 26.4994 22.3837C26.4998 22.3834 26.5002 22.3832 26.5006 22.383C26.5008 22.3828 26.5011 22.3827 26.5014 22.3826C26.5017 22.3823 26.5021 22.3822 26.5025 22.3819C26.5028 22.3818 26.5031 22.3817 26.5034 22.3815C26.5037 22.3814 26.5041 22.3811 26.5045 22.381C26.5047 22.3808 26.5051 22.3806 26.5053 22.3805C26.5057 22.3803 26.5061 22.3801 26.5065 22.3799C26.5068 22.3797 26.507 22.3796 26.5074 22.3794C26.5077 22.3792 26.508 22.3791 26.5083 22.3788C26.5087 22.3787 26.5091 22.3785 26.5094 22.3783C26.5096 22.3781 26.51 22.3779 26.5103 22.3778C26.5106 22.3776 26.511 22.3774 26.5114 22.3772C26.5116 22.377 26.5119 22.377 26.5122 22.3768C26.5126 22.3766 26.5129 22.3764 26.5133 22.3761C26.5136 22.3761 26.5138 22.3759 26.5141 22.3757C26.5145 22.3755 26.5149 22.3752 26.5154 22.375C26.5155 22.3749 26.5158 22.3748 26.516 22.3747C26.5164 22.3744 26.5168 22.3742 26.5172 22.3739C26.5175 22.3739 26.5177 22.3737 26.5179 22.3735C26.5183 22.3733 26.5188 22.373 26.5192 22.3728C26.5194 22.3727 26.5196 22.3726 26.5198 22.3725C26.5202 22.3722 26.5207 22.372 26.5211 22.3717C26.5212 22.3717 26.5215 22.3715 26.5217 22.3714C26.5221 22.3712 26.5226 22.3709 26.5231 22.3706C26.5233 22.3705 26.5234 22.3704 26.5236 22.3704C26.5241 22.3701 26.5246 22.3698 26.5251 22.3695C26.5252 22.3694 26.5253 22.3693 26.5255 22.3692C26.526 22.3689 26.5265 22.3686 26.527 22.3683C26.5271 22.3683 26.5273 22.3682 26.5273 22.3682C26.5278 22.3679 26.5283 22.3676 26.5289 22.3673C26.529 22.3672 26.5291 22.3671 26.5293 22.367C26.5298 22.3667 26.5304 22.3664 26.5309 22.366C26.5309 22.366 26.5311 22.3659 26.5312 22.3659C26.5317 22.3655 26.5322 22.3652 26.5328 22.3649C26.5329 22.3648 26.533 22.3648 26.5331 22.3647C26.5337 22.3644 26.5343 22.3641 26.5349 22.3637C26.5349 22.3637 26.5349 22.3637 26.535 22.3637C26.5356 22.3633 26.5361 22.363 26.5366 22.3627C26.5367 22.3627 26.5368 22.3626 26.5369 22.3625C26.5375 22.3622 26.5381 22.3618 26.5387 22.3614C26.5393 22.361 26.5399 22.3606 26.5405 22.3602L26.5406 22.3602C26.5411 22.3598 26.5418 22.3594 26.5424 22.359H26.5424C26.543 22.3587 26.5437 22.3583 26.5442 22.3579H26.5443C26.5455 22.3571 26.5468 22.3563 26.548 22.3555C26.5492 22.3547 26.5504 22.354 26.5517 22.3531C26.5716 22.3404 26.5907 22.3268 26.6093 22.3123C26.6104 22.3114 26.6116 22.3105 26.6127 22.3096C26.6133 22.3092 26.6138 22.3087 26.6144 22.3082C26.6149 22.3078 26.6155 22.3074 26.616 22.307C26.616 22.3069 26.6161 22.3069 26.6162 22.3068C26.6168 22.3064 26.6173 22.3059 26.6178 22.3055C26.6183 22.3051 26.6189 22.3046 26.6195 22.3042C26.6195 22.3041 26.6195 22.3041 26.6196 22.3041C26.6201 22.3037 26.6207 22.3032 26.6213 22.3028L26.6213 22.3027C26.6218 22.3023 26.6223 22.3019 26.6229 22.3015C26.623 22.3014 26.6231 22.3014 26.6231 22.3013C26.6236 22.3009 26.6242 22.3004 26.6247 22.3L26.6248 22.2999C26.6253 22.2995 26.6257 22.2991 26.6262 22.2987C26.6263 22.2987 26.6264 22.2986 26.6265 22.2986C26.627 22.2981 26.6275 22.2977 26.628 22.2973C26.628 22.2973 26.628 22.2972 26.6281 22.2972C26.6286 22.2968 26.629 22.2964 26.6295 22.296C26.6296 22.2959 26.6297 22.2959 26.6298 22.2958C26.6302 22.2954 26.6307 22.295 26.6312 22.2946C26.6313 22.2945 26.6314 22.2944 26.6315 22.2943C26.6319 22.294 26.6324 22.2936 26.6328 22.2932C26.6329 22.2931 26.6331 22.293 26.6332 22.2929C26.6336 22.2926 26.6341 22.2922 26.6346 22.2918C26.6346 22.2917 26.6348 22.2916 26.6349 22.2915C26.6353 22.2912 26.6357 22.2908 26.6362 22.2905C26.6364 22.2903 26.6364 22.2902 26.6366 22.2901C26.637 22.2897 26.6374 22.2893 26.6379 22.289C26.638 22.2889 26.6382 22.2888 26.6382 22.2887C26.6386 22.2883 26.639 22.2879 26.6395 22.2875C26.6396 22.2875 26.6398 22.2873 26.6399 22.2872C26.6403 22.2869 26.6407 22.2865 26.6411 22.2861C26.6413 22.2861 26.6414 22.2859 26.6416 22.2857C26.6419 22.2854 26.6423 22.2851 26.6427 22.2848C26.6429 22.2846 26.643 22.2844 26.6433 22.2843C26.6436 22.2839 26.644 22.2836 26.6444 22.2832C26.6446 22.2831 26.6448 22.283 26.6449 22.2828C26.6453 22.2825 26.6457 22.2822 26.6461 22.2818C26.6462 22.2817 26.6465 22.2815 26.6466 22.2813C26.647 22.281 26.6474 22.2807 26.6477 22.2804C26.6479 22.2802 26.648 22.28 26.6483 22.2799C26.6486 22.2796 26.6489 22.2793 26.6492 22.279C26.6495 22.2787 26.6497 22.2786 26.6499 22.2783C26.6502 22.2781 26.6506 22.2777 26.6509 22.2774C26.651 22.2773 26.6513 22.277 26.6515 22.2768C26.6519 22.2765 26.6522 22.2762 26.6525 22.2759C26.6527 22.2758 26.6529 22.2755 26.6532 22.2754C26.6535 22.2751 26.6538 22.2748 26.6541 22.2746C26.6543 22.2743 26.6546 22.2742 26.6548 22.2739C26.655 22.2737 26.6554 22.2734 26.6556 22.2732C26.6559 22.2729 26.6561 22.2727 26.6564 22.2724C26.6567 22.2722 26.6569 22.272 26.6572 22.2717C26.6574 22.2715 26.6577 22.2712 26.658 22.271C26.6582 22.2707 26.6586 22.2705 26.6588 22.2702C26.659 22.2699 26.6593 22.2697 26.6596 22.2694C26.6599 22.2692 26.6601 22.269 26.6603 22.2688C26.6606 22.2685 26.6609 22.2682 26.6612 22.268C26.6614 22.2678 26.6616 22.2675 26.6619 22.2673C26.6622 22.267 26.6625 22.2667 26.6628 22.2664C26.663 22.2662 26.6632 22.266 26.6634 22.2658C26.6637 22.2655 26.664 22.2652 26.6643 22.2649C26.6646 22.2647 26.6648 22.2644 26.6651 22.2643C26.6654 22.264 26.6656 22.2637 26.666 22.2634C26.6662 22.2632 26.6664 22.263 26.6666 22.2628C26.667 22.2625 26.6673 22.2622 26.6675 22.2619C26.6677 22.2618 26.6679 22.2616 26.6681 22.2613C26.6684 22.261 26.6688 22.2607 26.6692 22.2603C26.6693 22.2601 26.6695 22.26 26.6696 22.2599C26.67 22.2596 26.6704 22.2591 26.6707 22.2588C26.6709 22.2587 26.671 22.2585 26.6712 22.2583C26.6716 22.2579 26.6719 22.2576 26.6723 22.2572C26.6725 22.2571 26.6726 22.2569 26.6727 22.2568C26.6732 22.2565 26.6735 22.256 26.6739 22.2556C26.674 22.2555 26.6741 22.2554 26.6743 22.2552C26.6747 22.2548 26.6751 22.2544 26.6755 22.254C26.6756 22.2539 26.6757 22.2538 26.6758 22.2537C26.6763 22.2533 26.6767 22.2529 26.6771 22.2525C26.6772 22.2523 26.6773 22.2522 26.6775 22.252C26.6779 22.2517 26.6783 22.2512 26.6787 22.2508C26.6788 22.2507 26.6789 22.2507 26.6789 22.2506C26.6794 22.2502 26.6798 22.2498 26.6802 22.2493C26.6803 22.2492 26.6803 22.2491 26.6805 22.249C26.6809 22.2486 26.6813 22.2481 26.6818 22.2477C26.6819 22.2476 26.6819 22.2476 26.682 22.2476C26.6824 22.2471 26.6829 22.2467 26.6833 22.2462C26.6834 22.2461 26.6834 22.246 26.6835 22.2459C26.6839 22.2455 26.6844 22.245 26.6848 22.2446C26.6848 22.2445 26.6849 22.2445 26.685 22.2445C26.6854 22.244 26.6859 22.2436 26.6864 22.2431C26.6864 22.243 26.6865 22.243 26.6865 22.243C26.6869 22.2425 26.6874 22.2419 26.6879 22.2414V22.2414C26.6884 22.2409 26.6889 22.2404 26.6894 22.2399C26.6895 22.2398 26.6895 22.2398 26.6896 22.2397C26.69 22.2392 26.6905 22.2387 26.6909 22.2383V22.2382C26.6914 22.2377 26.6919 22.2371 26.6924 22.2366C26.7295 22.197 26.7623 22.1532 26.7899 22.106L26.79 22.1059C26.7907 22.1046 26.7915 22.1034 26.7921 22.1022V22.1021C26.7924 22.1014 26.7929 22.1008 26.7932 22.1003V22.1002C26.7935 22.0996 26.7938 22.0991 26.7942 22.0985C26.7943 22.0984 26.7943 22.0982 26.7944 22.0982C26.7946 22.0977 26.795 22.0971 26.7953 22.0965C26.7953 22.0964 26.7954 22.0963 26.7955 22.0962C26.7958 22.0957 26.796 22.0951 26.7964 22.0946C26.7964 22.0945 26.7965 22.0943 26.7966 22.0942C26.7969 22.0937 26.7972 22.0931 26.7974 22.0926C26.7975 22.0924 26.7976 22.0923 26.7977 22.0921C26.7979 22.0916 26.7982 22.0911 26.7985 22.0906C26.7986 22.0905 26.7986 22.0902 26.7988 22.0901C26.7991 22.0897 26.7993 22.0892 26.7995 22.0887C26.7996 22.0885 26.7998 22.0883 26.7999 22.0881C26.8001 22.0876 26.8004 22.0872 26.8006 22.0868C26.8007 22.0866 26.8009 22.0863 26.8009 22.0861C26.8012 22.0857 26.8014 22.0853 26.8017 22.0849C26.8017 22.0846 26.8019 22.0844 26.8021 22.084C26.8022 22.0837 26.8025 22.0833 26.8026 22.0829C26.8028 22.0826 26.803 22.0822 26.8032 22.0819C26.8034 22.0816 26.8035 22.0813 26.8037 22.0809C26.8039 22.0806 26.804 22.0802 26.8043 22.0799C26.8044 22.0796 26.8045 22.0793 26.8048 22.079C26.8049 22.0786 26.8052 22.0782 26.8053 22.0778C26.8055 22.0776 26.8056 22.0774 26.8057 22.077C26.8059 22.0766 26.8062 22.0762 26.8064 22.0757C26.8065 22.0755 26.8066 22.0753 26.8067 22.0751C26.807 22.0747 26.8072 22.0742 26.8075 22.0737C26.8075 22.0735 26.8076 22.0734 26.8078 22.0731C26.808 22.0726 26.8083 22.0721 26.8085 22.0716C26.8086 22.0715 26.8087 22.0712 26.8088 22.0711C26.809 22.0707 26.8093 22.0702 26.8096 22.0696C26.8097 22.0694 26.8097 22.0693 26.8098 22.0691C26.8101 22.0685 26.8104 22.068 26.8106 22.0674C26.8106 22.0673 26.8107 22.0673 26.8107 22.0672C26.8111 22.0667 26.8114 22.066 26.8116 22.0654C26.8116 22.0654 26.8117 22.0654 26.8117 22.0653C26.812 22.0646 26.8123 22.0641 26.8126 22.0634V22.0633C26.8129 22.0627 26.8133 22.0621 26.8136 22.0614V22.0614C26.8629 21.9623 26.8904 21.8506 26.89 21.7324V14.631C26.8909 14.5885 26.8882 14.5457 26.8816 14.5028C26.8667 14.4042 26.8322 14.3122 26.7822 14.2306C26.7399 14.1613 26.687 14.1008 26.6266 14.0503C26.5176 13.9591 26.3818 13.899 26.2327 13.8834C26.1859 13.8784 26.1382 13.8779 26.0903 13.8822C26.025 13.888 25.9621 13.9023 25.9027 13.9241L19.7762 15.9693C19.3916 16.0978 19.1838 16.5137 19.3122 16.8985C19.4406 17.2831 19.8566 17.4908 20.2412 17.3625L25.4213 15.6333V21.0033L21.1955 21.0186C20.7909 21.02 20.4637 21.3484 20.4637 21.7529V28.532H19.2139C18.8083 28.532 18.4795 28.8607 18.4795 29.2663C18.4795 29.6719 18.8083 30.0007 19.2139 30.0007H21.1829C21.188 30.0007 21.193 30.0008 21.1981 30.0008C21.4374 30.0008 21.6499 29.8864 21.7839 29.7093C21.8772 29.5862 21.9325 29.4327 21.9325 29.2663C21.9325 29.2618 21.9325 29.2573 21.9324 29.2528V22.4839H21.9331ZM5.92466 23.6409H1.80765V16.9252C1.80765 16.5196 1.47891 16.1909 1.0733 16.1909C0.667693 16.1909 0.338949 16.5196 0.338949 16.9252V24.3618C0.338867 24.3663 0.338867 24.3708 0.338867 24.3754V29.2656C0.338867 29.6712 0.667611 29.9999 1.07322 29.9999C1.47882 29.9999 1.80757 29.6712 1.80757 29.2656V25.1097H5.19031V29.2656C5.19031 29.6712 5.51905 29.9999 5.92466 29.9999C6.33027 29.9999 6.65901 29.6712 6.65901 29.2656V24.3754C6.65901 23.9698 6.33027 23.6409 5.92466 23.6409ZM16.6339 28.5309H15.7344V19.77H20.249C20.6546 19.77 20.9833 19.4413 20.9833 19.0357C20.9833 18.6301 20.6546 18.3013 20.249 18.3013H15.0152C15.0051 18.3011 14.9949 18.3011 14.9848 18.3013H9.75103C9.34543 18.3013 9.01668 18.6301 9.01668 19.0357C9.01668 19.4413 9.34543 19.77 9.75103 19.77H14.2657V28.5309H13.3661C12.9605 28.5309 12.6317 28.8596 12.6317 29.2653C12.6317 29.6709 12.9605 29.9996 13.3661 29.9996H16.6339C17.0395 29.9996 17.3683 29.6709 17.3683 29.2653C17.3683 28.8596 17.0395 28.5309 16.6339 28.5309Z" fill="black"/>
</g>
<defs>
<clipPath id="clip0_524_92">
<rect width="30" height="30" fill="white"/>
</clipPath>
</defs>
</svg>
