<svg width="45" height="41" viewBox="0 0 45 41" fill="none" xmlns="http://www.w3.org/2000/svg">
<rect x="10.7002" y="12.7798" width="27.5174" height="27.5174" rx="5" fill="#FBB900"/>
<ellipse cx="19.3317" cy="24.343" rx="1.56414" ry="2.81546" fill="#040000"/>
<ellipse cx="29.9684" cy="24.343" rx="1.56414" ry="2.81546" fill="#040000"/>
<path d="M25.2085 32.0327C24.8236 32.6994 23.8614 32.6994 23.4765 32.0327L21.8478 29.2117C21.4629 28.5451 21.944 27.7117 22.7138 27.7117L25.9712 27.7117C26.741 27.7117 27.2221 28.5451 26.8372 29.2117L25.2085 32.0327Z" fill="black"/>
<path d="M35.3479 9.42337C36.6918 8.6222 38.3937 9.60482 38.3718 11.1692L38.2254 21.633L29.3113 16.4865C27.9887 15.7229 27.9754 13.8185 29.2871 13.0365L35.3479 9.42337Z" fill="#FBB900"/>
<path d="M10.4933 7.59067L10.6897 21.6329L22.556 14.782L10.4933 7.59067Z" fill="#FBB900"/>
<path d="M5.57649 9.40392L6.11484 9.27754L5.93505 8.7546C5.52841 7.57184 5.9737 6.19148 7.07316 5.38347C8.17261 4.57546 9.62295 4.56267 10.6303 5.30394L11.0757 5.63168L11.3571 5.15563C11.5847 4.77063 11.8755 4.44149 12.2314 4.17994C12.8888 3.69676 13.6958 3.48292 14.4709 3.57776C15.2445 3.67242 15.9218 4.066 16.3613 4.664C17.1117 5.685 17.046 7.14937 16.1515 8.2209L15.9004 8.5217L16.1324 8.83743L19.0615 12.8229C19.225 13.0454 19.1772 13.3584 18.9547 13.5219L11.2924 19.1531C11.0699 19.3166 10.7569 19.2688 10.5934 19.0463L7.66435 15.0608L7.43231 14.7451L7.07026 14.8949C5.7805 15.4287 4.36334 15.054 3.61299 14.033C3.1735 13.435 3.00013 12.6711 3.1408 11.9045C3.28173 11.1365 3.7268 10.4301 4.38425 9.94696C4.74014 9.68541 5.1411 9.50614 5.57649 9.40392Z" fill="white" stroke="black"/>
<path d="M38.1839 33.7443C37.7684 33.6848 37.3182 33.7463 37.0214 34.0431L31.1266 39.9379C30.8518 40.2127 30.4064 40.2127 30.1317 39.9379V39.9379C29.857 39.6632 29.857 39.2178 30.1317 38.9431L36.0265 33.0483C36.3233 32.7515 36.3849 32.3012 36.3254 31.8857C36.1847 30.9034 36.5892 29.7409 37.4944 28.8357C38.842 27.481 40.7753 27.227 41.8054 28.2572C42.8426 29.2944 42.5886 31.2276 41.2339 32.5753C40.3287 33.4805 39.1663 33.885 38.1839 33.7443Z" fill="black"/>
</svg>
