<svg width="55" height="55" viewBox="0 0 55 55" fill="none" xmlns="http://www.w3.org/2000/svg">
<path d="M35.4245 4.58333C37.3266 4.58333 39.137 5.0875 40.6724 6.09583C43.2849 7.79167 44.8891 10.3812 45.2557 13.3833C45.5078 16.3396 44.4766 19.25 42.3911 21.3354C40.787 22.9167 38.7474 23.925 36.5016 24.1542C32.1245 24.6125 28.2745 26.3542 25.4099 29.2646C24.9286 29.7229 24.4016 29.7917 24.1036 29.7917C23.8286 29.7917 23.3016 29.7229 22.8203 29.2646L20.5516 26.9958C20.1391 26.5833 20.0474 26.1021 20.0474 25.7812C20.0474 25.2083 20.2995 24.7042 20.7807 24.2229C23.5536 21.4271 25.2495 17.7146 25.662 13.4521C25.9599 10.4042 27.587 7.79167 30.2453 6.07292C31.7578 5.0875 33.5453 4.58333 35.4245 4.58333ZM35.4245 0C32.7432 0 30.062 0.733333 27.7474 2.22292C23.7141 4.8125 21.4911 8.84583 21.1016 13.0167C20.8036 16.0417 19.6578 18.8604 17.5495 20.9687L17.4807 21.0375C14.8224 23.6958 14.8224 27.7521 17.3203 30.2271L19.5891 32.4958C20.8495 33.7562 22.4766 34.375 24.1036 34.375C25.7307 34.375 27.3807 33.7562 28.6411 32.4958C30.8641 30.2729 33.7974 29.0583 36.9828 28.7146C40.1224 28.3708 43.1932 26.9958 45.6224 24.5896C51.9703 18.2417 51.1453 7.47083 43.1703 2.29167C40.8557 0.75625 38.1516 0 35.4245 0ZM13.7682 40.9292C14.387 42.2125 14.1807 43.7708 13.1036 44.825C11.7745 46.1771 9.5974 46.1771 8.24531 44.825C7.62656 44.2062 7.30573 43.4042 7.2599 42.5792C6.4349 42.5333 5.63281 42.2125 5.01406 41.5937C3.66198 40.2417 3.66198 38.0646 5.01406 36.7354C6.06823 35.6812 7.64948 35.4521 8.9099 36.0708L14.5932 30.5021C14.9141 30.9375 15.2807 31.4417 15.6932 31.8542L17.962 34.1229C18.4432 34.5812 18.9016 34.9708 19.4974 35.3146L13.7682 40.9292Z" fill="white"/>
</svg>
