<svg width="59" height="58" viewBox="0 0 59 58" fill="none" xmlns="http://www.w3.org/2000/svg">
<path d="M32.9688 2.49142C32.9688 2.49142 39.614 1.98515 39.6924 7.03409C39.7777 12.1567 39.7708 20.6736 40.1029 25.1841C40.2712 27.4485 40.5156 31.0476 46.4922 31.211C52.5172 31.3767 56.9997 31.211 56.9997 31.211" stroke="white" stroke-width="4" stroke-linecap="round" stroke-linejoin="round"/>
<path d="M24.4054 2.34388C24.4054 2.34388 19.102 1.65351 19.102 9.86897V22.5742C19.102 27.5541 18.0022 31.1786 11.6151 31.5675C5.22811 31.9564 2 31.5675 2 31.5675" stroke="white" stroke-width="4" stroke-linecap="round" stroke-linejoin="round"/>
<path d="M9.89062 31.6575V52.1271C9.89124 53.1541 10.3003 54.1389 11.0279 54.8651C11.7555 55.5913 12.7422 55.9995 13.7713 56.0001H44.9963C46.053 56.0001 47.0665 55.5811 47.8137 54.8354C48.5609 54.0896 48.9807 53.0782 48.9807 52.0235V31.738" stroke="white" stroke-width="4" stroke-miterlimit="10" stroke-linecap="round"/>
<path d="M20.2962 35.9788H38.1869C38.5538 35.9788 38.9057 36.1242 39.1651 36.3832C39.4246 36.6421 39.5703 36.9933 39.5703 37.3595V44.2817C39.5703 45.6244 39.0359 46.9121 38.0846 47.8616C37.1332 48.811 35.843 49.3444 34.4976 49.3444H25.309C23.697 49.3444 22.151 48.7053 21.0112 47.5677C19.8713 46.4301 19.231 44.8872 19.231 43.2783V37.0419C19.231 36.76 19.3432 36.4895 19.543 36.2902C19.7427 36.0908 20.0137 35.9788 20.2962 35.9788Z" stroke="white" stroke-width="4" stroke-miterlimit="10" stroke-linecap="round"/>
<path d="M24.7949 29.5471H33.8613" stroke="white" stroke-width="4" stroke-miterlimit="10" stroke-linecap="round"/>
<path d="M19.0952 11.7214H39.6144" stroke="white" stroke-width="4" stroke-miterlimit="10" stroke-linecap="round"/>
<path d="M27.848 3.52217C28.5459 3.52217 29.1116 2.95756 29.1116 2.26109C29.1116 1.56461 28.5459 1 27.848 1C27.1502 1 26.5845 1.56461 26.5845 2.26109C26.5845 2.95756 27.1502 3.52217 27.848 3.52217Z" fill="#010101"/>
</svg>
