<svg width="68" height="55" viewBox="0 0 68 55" fill="none" xmlns="http://www.w3.org/2000/svg">
<path d="M15.9546 2.58571C15.9546 2.58571 17.0355 12.4714 23.6381 15.4049C26.1977 14.391 26.2123 13.3943 33.7299 13.4779C41.2476 13.5616 44.8197 15.5722 44.8197 15.5722C44.8197 15.5722 52.1299 11.0071 52.1714 2" stroke="white" stroke-width="4" stroke-linecap="round" stroke-linejoin="round"/>
<path d="M17.372 27.7194H12.004C12.004 27.7194 5.65999 28.6841 2 16.7878H14.9588C14.9588 16.7878 19.9828 18.7123 23.4719 29.0705C26.9611 39.4287 31.5239 52.5284 31.5239 52.5284H37.5043L47.2643 22.3668C47.2643 22.3668 50.3119 16.2415 56.8218 16.2415H66.001C66.001 16.2415 65.8766 19.5318 61.5139 24.3626C57.7783 28.5094 50.7194 27.6456 50.7194 27.6456" stroke="white" stroke-width="4" stroke-linecap="round" stroke-linejoin="round"/>
<path d="M27.588 41.6213H41.1959L44.8192 47.193C44.8192 47.193 47.352 52.5948 41.7863 52.5948H25.5482C25.5482 52.5948 21.5612 52.5948 23.013 48.0715C23.6596 45.5983 27.588 41.6213 27.588 41.6213Z" stroke="white" stroke-width="4" stroke-linecap="round" stroke-linejoin="round"/>
</svg>
