<svg width="31" height="30" viewBox="0 0 31 30" fill="none" xmlns="http://www.w3.org/2000/svg">
<g clip-path="url(#clip0_524_2)">
<path d="M29.8517 16.6907L27.9616 13.02C27.7987 12.7034 27.4089 12.5648 27.0728 12.7037L25.1507 13.4982C24.9172 13.0189 24.4206 12.7257 23.8536 12.751C23.2099 12.7809 22.6949 13.2124 22.5723 13.8246C22.4975 14.1983 22.4482 14.6092 22.4006 15.0066C22.311 15.7542 22.2094 16.6016 21.9354 17.0259C21.6314 17.4965 21.5045 18.0625 21.4752 18.6244C20.3673 19.7365 18.4382 20.1314 17.4073 19.9804C16.9309 19.9107 16.293 19.7829 15.6177 19.6477C15.1099 19.546 14.5638 19.4368 14.0052 19.3352C15.3138 17.1499 15.3081 14.404 13.9124 12.203L13.4607 11.491C13.4999 11.43 13.5389 11.3689 13.5787 11.3073C14.8772 9.29581 15.3478 6.90368 14.9039 4.57187C14.886 4.47783 14.8557 4.36496 14.8112 4.22697C14.045 1.85141 11.7921 0.176957 9.20525 0.0602062L8.0138 0.00643936C5.43855 -0.10931 3.03937 1.3446 2.04207 3.62531C1.0066 5.99332 1.17279 8.69455 2.47729 10.9053C1.88208 11.9339 1.23643 13.6049 1.10191 16.1261C0.918809 19.5567 1.73218 23.6531 3.51945 28.3015C3.52615 28.319 3.5336 28.3362 3.54182 28.353C3.87614 29.0405 4.49198 29.5204 5.37223 29.7794C5.90463 29.936 6.50052 30.0001 7.11927 30.0001C8.47208 30.0001 9.93366 29.6939 11.0769 29.3797C13.1308 28.8152 15.2999 27.9158 17.028 26.9121C21.0299 24.5886 26.3709 21.7669 26.4243 21.7386C26.5138 21.6914 26.5913 21.6257 26.6513 21.5461L29.7916 17.3823C29.9435 17.1808 29.9667 16.9141 29.8517 16.6907ZM25.6272 20.638C24.7645 21.0952 19.9858 23.637 16.3176 25.7667C13.0964 27.6378 8.09096 29.1832 5.7737 28.5013C5.28678 28.358 4.96854 28.1306 4.80187 27.8065C1.41504 18.9811 2.40082 14.2463 3.39826 12.1038C3.53657 12.272 3.67053 12.4443 3.79753 12.6197C4.01624 12.9218 4.44663 12.9951 4.7588 12.7834C5.07097 12.5718 5.14668 12.1553 4.92796 11.8532C4.70773 11.5491 4.47024 11.2518 4.22198 10.9696C3.94329 10.6527 3.83272 10.497 3.79166 10.4323C2.59455 8.54861 2.41566 6.19864 3.31323 4.14595C4.08636 2.37799 5.95052 1.25049 7.94948 1.34092L9.14092 1.39469C11.1504 1.48539 12.8995 2.78354 13.4935 4.62497C13.5308 4.74052 13.5428 4.79522 13.5463 4.81366C13.9277 6.81686 13.5235 8.87162 12.4081 10.5995C11.9471 11.3135 11.5291 11.99 11.1656 12.6102C10.9775 12.931 11.0938 13.3387 11.4254 13.5207C11.5329 13.5797 11.6499 13.6078 11.7653 13.6078C12.0057 13.6078 12.2392 13.4861 12.3663 13.2693C12.4598 13.1098 12.5574 12.9461 12.6582 12.779L12.736 12.9018C13.958 14.8287 13.8607 17.2721 12.5236 19.0966C11.7439 18.9909 10.9824 18.9257 10.3073 18.9431C9.92627 18.9529 9.62563 19.2598 9.63578 19.6286C9.64593 19.9973 9.96423 20.2889 10.3441 20.2785C11.7709 20.2411 13.7491 20.6376 15.338 20.9559C16.0622 21.1009 16.6876 21.2262 17.2009 21.3013C17.3962 21.3299 17.6157 21.3449 17.8531 21.3449C18.9444 21.3449 20.4113 21.0268 21.6121 20.2449C21.712 20.7435 21.8327 21.1103 21.8659 21.2066C21.9622 21.4863 22.2313 21.6631 22.5201 21.6631C22.5922 21.6631 22.6657 21.652 22.7378 21.6288C23.0993 21.5127 23.2951 21.1349 23.1756 20.7849C23.1738 20.7794 22.9872 20.2288 22.8974 19.5506C22.7915 18.7512 22.8655 18.1061 23.1059 17.734C23.5447 17.0545 23.6601 16.0917 23.7717 15.1606C23.8164 14.7876 23.8588 14.4344 23.9193 14.1209C24.4498 15.9223 23.9626 18.1593 23.9576 18.1819C23.877 18.5422 24.1132 18.8975 24.4855 18.9758C24.8579 19.0539 25.2256 18.8256 25.3065 18.4651C25.314 18.4318 25.3736 18.1605 25.4317 17.7381L26.7396 16.7716C27.0426 16.5477 27.1006 16.1286 26.8694 15.8354C26.638 15.5423 26.205 15.4859 25.9019 15.7099L25.5467 15.9724C25.5431 15.6021 25.5199 15.2128 25.4677 14.82L27.0166 14.1797L28.4292 16.9231L25.6272 20.638Z" fill="black"/>
</g>
<defs>
<clipPath id="clip0_524_2">
<rect width="31" height="30" fill="white"/>
</clipPath>
</defs>
</svg>
