<svg width="29" height="28" viewBox="0 0 29 28" fill="none" xmlns="http://www.w3.org/2000/svg">
<path d="M27.0251 0H1.977C0.887459 0 0.000976562 0.834157 0.000976562 1.85945V15.7859C0.000976562 16.8113 0.887459 17.6454 1.977 17.6454H11.8444C12.0073 18.0817 12.4482 18.3959 12.9668 18.3959H13.7261H14.9197V26.1192C14.9197 26.2896 14.7724 26.4282 14.5914 26.4282H14.5123C14.3313 26.4282 14.184 26.2896 14.184 26.1192V19.3069C14.184 19.0688 13.979 18.876 13.7261 18.876C13.4732 18.876 13.2683 19.0689 13.2683 19.3069V26.1193C13.2683 26.7648 13.8263 27.29 14.5123 27.29H14.5914C15.2773 27.29 15.8354 26.7648 15.8354 26.1193V18.3959H16.0806C16.5992 18.3959 17.0402 18.0817 17.203 17.6454H27.025C28.1145 17.6454 29.0009 16.8112 29.0009 15.7859V1.85945C29.0009 0.834157 28.1146 0 27.0251 0ZM19.6396 0.861767H21.8442V3.1263C21.1774 2.79973 20.4075 2.65944 19.6396 2.74552V0.861767ZM16.519 0.861767H18.7237V2.96107H18.7238C17.8753 3.27144 17.1852 3.85503 16.7661 4.62363C16.6648 4.80954 16.5831 5.00143 16.519 5.19699V0.861767V0.861767ZM13.3986 0.861767H15.6033V8.5382C15.4849 8.45899 15.3623 8.38603 15.2373 8.32079C15.2224 8.3129 15.2072 8.30554 15.192 8.29835C14.2289 7.6138 13.8392 6.68749 13.7128 6.30538C13.6363 6.00876 13.5297 5.72205 13.3986 5.44702V0.861767V0.861767ZM10.2781 0.861767H12.4828V4.13124C12.1008 3.73617 11.6516 3.39707 11.1473 3.13339C10.869 2.98788 10.5777 2.86721 10.2781 2.77148V0.861767ZM7.15775 0.861767H9.36237V2.56201C9.10579 2.52576 8.84643 2.50679 8.58639 2.50679C8.09662 2.50679 7.61671 2.57096 7.15775 2.69217V0.861767V0.861767ZM4.03724 0.861767H6.24192V3.02311C5.338 3.44392 4.56621 4.10544 4.03724 4.94653V0.861767ZM3.12142 16.7836H1.977C1.39235 16.7836 0.916742 16.336 0.916742 15.7859V1.85945C0.916742 1.30933 1.39235 0.861767 1.977 0.861767H3.12142V16.7836V16.7836ZM6.24181 16.7836H4.03719V10.0862C4.35845 10.5983 4.78009 11.06 5.29693 11.4399C5.30169 11.4434 5.3065 11.4468 5.31149 11.4501C5.47546 11.5681 5.65235 11.6499 5.80885 11.7222C5.88226 11.7561 5.95158 11.7881 6.01678 11.8223C6.08203 11.8564 6.14784 11.895 6.21751 11.9359C6.22539 11.9405 6.23388 11.9454 6.24181 11.95V16.7836V16.7836ZM7.05591 11.3857C6.94546 11.3475 6.82731 11.2782 6.7023 11.2048C6.62595 11.16 6.54699 11.1136 6.46146 11.069C6.37616 11.0244 6.29296 10.9859 6.21264 10.9487C6.08005 10.8875 5.95476 10.8295 5.86175 10.7613C5.8579 10.7583 5.85382 10.7555 5.8498 10.7528C4.18434 9.51995 3.71796 7.2568 4.76587 5.48231C5.53567 4.17852 6.99966 3.36861 8.58634 3.36861C9.32261 3.36861 10.0543 3.54775 10.7024 3.88664C11.7675 4.44353 12.5414 5.40337 12.8257 6.52002C12.828 6.52876 12.8305 6.5375 12.8333 6.54608C12.9832 7.00559 13.4629 8.16568 14.6767 9.01178C14.6951 9.02462 14.7145 9.03619 14.7347 9.04632C14.7469 9.05234 14.7591 9.0582 14.7714 9.06401C14.7782 9.06721 14.7851 9.07019 14.7926 9.07419C14.9228 9.14215 15.0495 9.22077 15.1692 9.30786C15.1791 9.31527 15.1892 9.32231 15.1996 9.32892C15.3111 9.40359 15.5208 9.61045 15.6382 9.73779C16.4126 10.6248 16.5304 11.8454 15.9379 12.8486C15.4178 13.7295 14.4286 14.2767 13.3564 14.2767C12.859 14.2767 12.3646 14.1557 11.9268 13.9267C11.8516 13.8873 11.7795 13.8547 11.7098 13.8233C11.6018 13.7746 11.5086 13.7325 11.4457 13.6834C11.424 13.6665 11.4008 13.6516 11.3762 13.6388L7.12042 11.4134C7.09975 11.4027 7.07817 11.3933 7.05591 11.3857ZM15.6033 14.4614V16.033H13.3986V15.1378C14.2028 15.1296 14.9693 14.8865 15.6033 14.4614ZM9.36231 16.7836H7.15769V12.4189L9.36231 13.5717V16.7836ZM12.4828 16.1307C12.4584 16.1409 12.4344 16.1517 12.4109 16.1634C12.4009 16.1684 12.3912 16.1738 12.3812 16.1791C12.36 16.1904 12.3392 16.2022 12.319 16.2147C12.3091 16.2208 12.2993 16.2268 12.2897 16.2331C12.2679 16.2474 12.2467 16.2624 12.2261 16.278C12.2194 16.283 12.2125 16.2876 12.206 16.2927C12.1793 16.3136 12.1536 16.3356 12.129 16.3585C12.1234 16.3637 12.1183 16.3693 12.1129 16.3745C12.094 16.3929 12.0757 16.4117 12.0582 16.4312C12.0507 16.4395 12.0435 16.448 12.0363 16.4565C12.0212 16.4744 12.0066 16.4926 11.9926 16.5114C11.9861 16.5202 11.9795 16.5288 11.9732 16.5377C11.9573 16.5604 11.9424 16.5837 11.9281 16.6076C11.9251 16.6126 11.9217 16.6173 11.9188 16.6224C11.9022 16.6514 11.887 16.6813 11.873 16.7118C11.8693 16.7198 11.8662 16.728 11.8628 16.736C11.856 16.7518 11.8488 16.7675 11.8428 16.7836H10.278V14.0505L10.8982 14.3748C11.0369 14.4754 11.1831 14.5415 11.3134 14.6004C11.3735 14.6275 11.4303 14.6531 11.4816 14.68C11.7967 14.8447 12.1343 14.9666 12.4826 15.0431V16.1307H12.4828ZM16.3553 17.2146V17.2756C16.3553 17.4182 16.232 17.5342 16.0805 17.5342H15.3775H13.7261H12.9668C12.8154 17.5342 12.692 17.4182 12.692 17.2756V17.2146V17.1534C12.692 17.0109 12.8153 16.8949 12.9668 16.8949H16.0805C16.232 16.8949 16.3553 17.0108 16.3553 17.1534V17.2146ZM18.7238 16.7836H17.2045C17.1985 16.7674 17.1913 16.7518 17.1846 16.7359C17.1812 16.7279 17.1781 16.7198 17.1744 16.7118C17.1604 16.6813 17.1453 16.6514 17.1285 16.6224C17.1256 16.6173 17.1223 16.6126 17.1193 16.6076C17.1051 16.5838 17.0901 16.5604 17.0742 16.5377C17.0679 16.5288 17.0613 16.5202 17.0547 16.5114C17.0407 16.4927 17.0262 16.4744 17.0111 16.4565C17.0039 16.448 16.9967 16.4395 16.9892 16.4312C16.9717 16.4117 16.9534 16.3929 16.9345 16.3746C16.9291 16.3693 16.924 16.3637 16.9184 16.3585C16.8938 16.3355 16.8682 16.3136 16.8415 16.2927C16.835 16.2875 16.828 16.2829 16.8213 16.2778C16.8006 16.2623 16.7795 16.2474 16.7578 16.2331C16.7481 16.2267 16.7382 16.2207 16.7284 16.2146C16.7081 16.2022 16.6874 16.1903 16.6662 16.179C16.6563 16.1737 16.6465 16.1683 16.6364 16.1633C16.61 16.1501 16.5832 16.138 16.5557 16.1267C16.5508 16.1247 16.5461 16.1223 16.5411 16.1203C16.5339 16.1174 16.5263 16.1151 16.519 16.1123V13.645C16.519 13.6294 16.518 13.614 16.5163 13.5989C16.596 13.4928 16.6703 13.3823 16.7382 13.2672C17.468 12.0313 17.3755 10.5441 16.519 9.40466V7.24283C16.5245 7.25978 16.5292 7.27684 16.5349 7.29379C16.8515 8.2193 17.5699 8.98417 18.5076 9.39426C18.5642 9.42326 18.6388 9.46494 18.7237 9.5192V16.7836H18.7238ZM21.8442 16.7836H19.6395V10.4943C19.6414 10.498 19.6436 10.5013 19.6455 10.5051C19.648 10.513 19.6505 10.5208 19.6531 10.5283C19.6953 10.6521 19.7482 10.7746 19.8104 10.8924C19.901 11.0804 20.0981 11.3222 20.1374 11.3696C20.1396 11.3723 20.1418 11.3749 20.1439 11.3774C20.5847 11.8847 21.1915 12.2033 21.8442 12.301V16.7836V16.7836ZM20.8562 10.8357C20.7747 10.7366 20.6711 10.5942 20.6443 10.5362C20.641 10.5291 20.6374 10.522 20.6337 10.5151C20.5906 10.4339 20.5539 10.3498 20.5253 10.2657L20.5227 10.2568C20.5197 10.2468 20.5167 10.2367 20.5135 10.2266C20.507 10.2064 20.4989 10.1867 20.4893 10.1676C20.0339 9.26128 19.2472 8.78999 18.9302 8.6295C18.9217 8.62524 18.9132 8.62119 18.9044 8.61746C18.1925 8.30943 17.6466 7.7308 17.4069 7.02979C17.1774 6.35889 17.2393 5.64418 17.5811 5.01715C17.9229 4.39012 18.5038 3.92582 19.2167 3.70989C20.5351 3.31083 21.9911 3.86782 22.6093 5.00665C22.6112 5.01054 22.6133 5.01459 22.6154 5.01848C22.6444 5.07242 22.6657 5.14774 22.6904 5.23504C22.7066 5.29181 22.7232 5.3506 22.7445 5.41285C22.766 5.4757 22.789 5.53278 22.8111 5.58795C22.845 5.67227 22.8744 5.74508 22.8844 5.80483C22.9238 6.03994 23.1586 6.20027 23.4081 6.16322C23.6579 6.12613 23.8284 5.90546 23.7889 5.6704C23.7642 5.52297 23.7128 5.39537 23.6676 5.28285C23.6486 5.23568 23.6307 5.19112 23.6162 5.14896C23.602 5.10717 23.589 5.06139 23.5752 5.01283C23.5433 4.90042 23.5073 4.77356 23.4406 4.64479C23.4381 4.63957 23.4354 4.63445 23.4327 4.62939C23.2555 4.29887 23.0253 4.00491 22.756 3.75259C22.7583 3.73489 22.7599 3.71698 22.7599 3.69865V0.861767H24.9646V9.11406C24.949 9.05436 24.9319 8.99477 24.9116 8.93572C24.9008 8.90416 24.8907 8.86738 24.8801 8.82837C24.8559 8.73978 24.8264 8.6319 24.7701 8.52205L24.1829 6.80518C24.1054 6.57865 23.8472 6.45419 23.6067 6.527C23.366 6.59997 23.2337 6.84265 23.3111 7.06923L23.9094 8.81851C23.918 8.84372 23.9291 8.86813 23.9425 8.89148C23.9601 8.92218 23.9762 8.98092 23.9932 9.04317C24.0062 9.09039 24.0207 9.14396 24.0399 9.19998C24.1911 9.64174 24.1503 10.1125 23.9252 10.5254C23.7002 10.9384 23.3177 11.244 22.8482 11.3862C22.1221 11.6059 21.3408 11.39 20.8562 10.8357ZM24.9647 16.7836H22.76V12.2924H22.76C22.8835 12.2718 23.0066 12.2435 23.1287 12.2065C23.831 11.9938 24.4032 11.5364 24.74 10.9186C24.8391 10.7369 24.9137 10.5475 24.9647 10.3541V16.7836ZM28.0852 15.786C28.0852 16.3361 27.6096 16.7837 27.025 16.7837H25.8805V0.861767H27.025C27.6096 0.861767 28.0852 1.30933 28.0852 1.85945V15.786Z" fill="black"/>
</svg>
