<svg width="23" height="25" viewBox="0 0 23 25" fill="none" xmlns="http://www.w3.org/2000/svg">
<path d="M18.3897 24.5042C19.2331 24.5061 20.0609 24.3225 20.7825 23.9734C21.5041 23.6243 22.0917 23.1233 22.481 22.5251C22.8703 21.927 23.0462 21.2547 22.9896 20.5819C22.933 19.9092 22.6461 19.2618 22.1601 18.7107C21.6741 18.1596 21.0079 17.726 20.2343 17.4573C19.4608 17.1886 18.6097 17.0953 17.7742 17.1875C16.9387 17.2796 16.151 17.5538 15.4974 17.9799C14.8437 18.406 14.3492 18.9676 14.0681 19.6034H6.34444L9.39406 15.8542C10.2787 15.9519 11.1759 15.9519 12.0606 15.8542L13.6237 17.7655C14.2673 17.1529 15.0949 16.6138 16.091 16.2953L15.1562 15.1558C17.0325 14.4758 18.6243 13.3782 19.7412 11.9942C20.8581 10.6102 21.453 8.99834 21.4546 7.35126H0C0.00297414 8.99969 0.600077 10.6125 1.71983 11.9967C2.83959 13.3808 4.43455 14.4776 6.31379 15.1558L0.26052 22.6051C0.0745068 22.8758 0.0232364 23.1927 0.116972 23.4923C0.210707 23.792 0.442531 24.0522 0.76604 24.2211C1.08955 24.3899 1.48087 24.4548 1.86168 24.4028C2.24248 24.3508 2.58467 24.1857 2.81975 23.9406L4.35222 22.0538H14.0681C14.3843 22.7687 14.9693 23.388 15.743 23.8267C16.5167 24.2654 17.4412 24.5021 18.3897 24.5042ZM18.3897 19.6034C18.7961 19.6034 19.1859 19.7324 19.4733 19.9622C19.7607 20.192 19.9221 20.5036 19.9221 20.8286C19.9221 21.5024 19.2325 22.0538 18.3897 22.0538C17.5468 22.0538 16.8572 21.5024 16.8572 20.8286C16.8572 20.5036 17.0187 20.192 17.306 19.9622C17.5934 19.7324 17.9832 19.6034 18.3897 19.6034ZM3.70858 9.80168H17.746C17.1486 10.8923 16.1665 11.8201 14.92 12.4716C13.6735 13.1231 12.2166 13.4701 10.7273 13.4701C9.23806 13.4701 7.7811 13.1231 6.53458 12.4716C5.28807 11.8201 4.30604 10.8923 3.70858 9.80168ZM6.7582 6.12605H8.29068C8.52055 4.71706 8.64315 4.1167 6.89613 2.49943C6.28314 1.88682 5.8847 1.55602 6.22184 0H4.70469C4.52152 0.647214 4.55086 1.3213 4.78985 1.95677C5.02883 2.59224 5.46935 3.16749 6.06859 3.62662C6.40574 3.92067 7.27924 4.44751 6.7582 6.12605ZM10.5587 6.12605H12.0912C12.3211 4.71706 12.4437 4.1167 10.7273 2.49943C10.0837 1.88682 9.68523 1.54376 10.0224 0H8.50522C8.32206 0.647214 8.35139 1.3213 8.59038 1.95677C8.82937 2.59224 9.26988 3.16749 9.86912 3.62662C10.2216 3.92067 11.0951 4.44751 10.5587 6.12605ZM14.4206 6.12605H15.953C16.1829 4.71706 16.3055 4.1167 14.5585 2.49943C13.9455 1.88682 13.5471 1.55602 13.8842 0H12.3671C12.1839 0.647214 12.2132 1.3213 12.4522 1.95677C12.6912 2.59224 13.1317 3.16749 13.731 3.62662C14.0681 3.92067 14.9416 4.44751 14.4206 6.12605Z" fill="black"/>
</svg>
